<mxfile host="app.diagrams.net" modified="2021-11-02T08:31:31.848Z" agent="5.0 (Macintosh; Intel Mac OS X 10_15_7) AppleWebKit/537.36 (KHTML, like Gecko) Chrome/92.0.4515.107 Safari/537.36 Edg/92.0.902.62" etag="2-ILSF94GHfYok0o5L-2" version="15.6.5" type="github">
  <diagram id="Xpdo446xeNEyikhnvSWz" name="Page-1">
    <mxGraphModel dx="1527" dy="839" grid="1" gridSize="10" guides="1" tooltips="1" connect="1" arrows="1" fold="1" page="1" pageScale="1" pageWidth="827" pageHeight="1169" math="0" shadow="0">
      <root>
        <mxCell id="0" />
        <mxCell id="1" parent="0" />
        <mxCell id="7rKRXa0emyEfOEcInCLG-19" value="" style="edgeStyle=orthogonalEdgeStyle;rounded=0;orthogonalLoop=1;jettySize=auto;html=1;fontColor=default;" edge="1" parent="1" source="7rKRXa0emyEfOEcInCLG-6" target="7rKRXa0emyEfOEcInCLG-18">
          <mxGeometry relative="1" as="geometry" />
        </mxCell>
        <mxCell id="7rKRXa0emyEfOEcInCLG-6" value="&lt;p class=&quot;p1&quot; style=&quot;margin: 0px ; font-stretch: normal ; font-size: 13px ; line-height: normal ; font-family: &amp;quot;helvetica neue&amp;quot;&quot;&gt;render&lt;/p&gt;" style="rounded=1;whiteSpace=wrap;html=1;fontColor=default;strokeColor=default;fillColor=default;" vertex="1" parent="1">
          <mxGeometry x="240" y="150" width="90" height="30" as="geometry" />
        </mxCell>
        <mxCell id="7rKRXa0emyEfOEcInCLG-45" value="" style="edgeStyle=orthogonalEdgeStyle;rounded=0;orthogonalLoop=1;jettySize=auto;html=1;labelBackgroundColor=default;fontColor=default;strokeColor=default;exitX=0.678;exitY=1.033;exitDx=0;exitDy=0;entryX=0.561;entryY=0.033;entryDx=0;entryDy=0;entryPerimeter=0;exitPerimeter=0;" edge="1" parent="1" source="7rKRXa0emyEfOEcInCLG-12" target="7rKRXa0emyEfOEcInCLG-14">
          <mxGeometry relative="1" as="geometry" />
        </mxCell>
        <mxCell id="7rKRXa0emyEfOEcInCLG-12" value="&lt;p class=&quot;p1&quot; style=&quot;margin: 0px ; font-stretch: normal ; font-size: 13px ; line-height: normal ; font-family: &amp;quot;helvetica neue&amp;quot;&quot;&gt;reconcileChildren&lt;/p&gt;" style="rounded=1;whiteSpace=wrap;html=1;fontColor=default;strokeColor=default;fillColor=default;" vertex="1" parent="1">
          <mxGeometry x="110" y="530" width="120" height="30" as="geometry" />
        </mxCell>
        <mxCell id="7rKRXa0emyEfOEcInCLG-14" value="&lt;p class=&quot;p1&quot; style=&quot;margin: 0px ; font-stretch: normal ; font-size: 13px ; line-height: normal ; font-family: &amp;quot;helvetica neue&amp;quot;&quot;&gt;updateNode&lt;/p&gt;" style="rounded=1;whiteSpace=wrap;html=1;fontColor=default;strokeColor=default;fillColor=default;" vertex="1" parent="1">
          <mxGeometry x="140" y="600" width="90" height="30" as="geometry" />
        </mxCell>
        <mxCell id="7rKRXa0emyEfOEcInCLG-15" value="&lt;p class=&quot;p1&quot; style=&quot;margin: 0px ; font-stretch: normal ; font-size: 13px ; line-height: normal ; font-family: &amp;quot;helvetica neue&amp;quot;&quot;&gt;updateFunctionComponent&lt;/p&gt;" style="rounded=1;whiteSpace=wrap;html=1;fontColor=default;strokeColor=default;fillColor=default;" vertex="1" parent="1">
          <mxGeometry x="360" y="570" width="180" height="30" as="geometry" />
        </mxCell>
        <mxCell id="7rKRXa0emyEfOEcInCLG-33" value="" style="edgeStyle=orthogonalEdgeStyle;rounded=0;orthogonalLoop=1;jettySize=auto;html=1;labelBackgroundColor=default;fontColor=default;strokeColor=default;" edge="1" parent="1" source="7rKRXa0emyEfOEcInCLG-18" target="7rKRXa0emyEfOEcInCLG-20">
          <mxGeometry relative="1" as="geometry" />
        </mxCell>
        <mxCell id="7rKRXa0emyEfOEcInCLG-34" style="edgeStyle=orthogonalEdgeStyle;rounded=0;orthogonalLoop=1;jettySize=auto;html=1;entryX=0.5;entryY=0;entryDx=0;entryDy=0;labelBackgroundColor=default;fontColor=default;strokeColor=default;exitX=0.5;exitY=1;exitDx=0;exitDy=0;" edge="1" parent="1" source="7rKRXa0emyEfOEcInCLG-18" target="7rKRXa0emyEfOEcInCLG-22">
          <mxGeometry relative="1" as="geometry" />
        </mxCell>
        <mxCell id="7rKRXa0emyEfOEcInCLG-35" style="edgeStyle=orthogonalEdgeStyle;rounded=0;orthogonalLoop=1;jettySize=auto;html=1;entryX=0.5;entryY=0;entryDx=0;entryDy=0;labelBackgroundColor=default;fontColor=default;strokeColor=default;exitX=0.5;exitY=1;exitDx=0;exitDy=0;" edge="1" parent="1" source="7rKRXa0emyEfOEcInCLG-18" target="7rKRXa0emyEfOEcInCLG-25">
          <mxGeometry relative="1" as="geometry" />
        </mxCell>
        <mxCell id="7rKRXa0emyEfOEcInCLG-18" value="&lt;span style=&quot;font-family: &amp;quot;helvetica neue&amp;quot; ; font-size: 13px&quot;&gt;createNode&lt;/span&gt;" style="whiteSpace=wrap;html=1;aspect=fixed;fontColor=default;strokeColor=default;fillColor=default;" vertex="1" parent="1">
          <mxGeometry x="245" y="220" width="80" height="80" as="geometry" />
        </mxCell>
        <mxCell id="7rKRXa0emyEfOEcInCLG-37" style="edgeStyle=orthogonalEdgeStyle;rounded=0;orthogonalLoop=1;jettySize=auto;html=1;labelBackgroundColor=default;fontColor=default;strokeColor=default;entryX=0;entryY=0.5;entryDx=0;entryDy=0;" edge="1" parent="1" source="7rKRXa0emyEfOEcInCLG-20" target="7rKRXa0emyEfOEcInCLG-15">
          <mxGeometry relative="1" as="geometry">
            <mxPoint x="340" y="585" as="targetPoint" />
            <Array as="points">
              <mxPoint x="285" y="585" />
            </Array>
          </mxGeometry>
        </mxCell>
        <mxCell id="7rKRXa0emyEfOEcInCLG-39" style="edgeStyle=orthogonalEdgeStyle;rounded=0;orthogonalLoop=1;jettySize=auto;html=1;entryX=0;entryY=0.5;entryDx=0;entryDy=0;labelBackgroundColor=default;fontColor=default;strokeColor=default;" edge="1" parent="1" source="7rKRXa0emyEfOEcInCLG-20" target="7rKRXa0emyEfOEcInCLG-38">
          <mxGeometry relative="1" as="geometry">
            <Array as="points">
              <mxPoint x="285" y="655" />
            </Array>
          </mxGeometry>
        </mxCell>
        <mxCell id="7rKRXa0emyEfOEcInCLG-20" value="function" style="whiteSpace=wrap;html=1;aspect=fixed;fontColor=default;strokeColor=default;fillColor=default;" vertex="1" parent="1">
          <mxGeometry x="260" y="420" width="50" height="50" as="geometry" />
        </mxCell>
        <mxCell id="7rKRXa0emyEfOEcInCLG-41" style="edgeStyle=orthogonalEdgeStyle;rounded=0;orthogonalLoop=1;jettySize=auto;html=1;labelBackgroundColor=default;fontColor=default;strokeColor=default;" edge="1" parent="1" source="7rKRXa0emyEfOEcInCLG-22">
          <mxGeometry relative="1" as="geometry">
            <mxPoint x="190" y="530" as="targetPoint" />
          </mxGeometry>
        </mxCell>
        <mxCell id="7rKRXa0emyEfOEcInCLG-22" value="string" style="rounded=1;whiteSpace=wrap;html=1;fontColor=default;strokeColor=default;fillColor=default;" vertex="1" parent="1">
          <mxGeometry x="160" y="420" width="60" height="30" as="geometry" />
        </mxCell>
        <mxCell id="7rKRXa0emyEfOEcInCLG-25" value="" style="rounded=1;whiteSpace=wrap;html=1;fontColor=default;strokeColor=default;fillColor=default;" vertex="1" parent="1">
          <mxGeometry x="350" y="420" width="60" height="30" as="geometry" />
        </mxCell>
        <mxCell id="7rKRXa0emyEfOEcInCLG-40" style="edgeStyle=orthogonalEdgeStyle;rounded=0;orthogonalLoop=1;jettySize=auto;html=1;entryX=1;entryY=0.5;entryDx=0;entryDy=0;labelBackgroundColor=default;fontColor=default;strokeColor=default;" edge="1" parent="1" source="7rKRXa0emyEfOEcInCLG-38" target="7rKRXa0emyEfOEcInCLG-6">
          <mxGeometry relative="1" as="geometry">
            <Array as="points">
              <mxPoint x="610" y="655" />
              <mxPoint x="610" y="165" />
            </Array>
          </mxGeometry>
        </mxCell>
        <mxCell id="7rKRXa0emyEfOEcInCLG-38" value="&lt;p class=&quot;p1&quot; style=&quot;margin: 0px ; font-stretch: normal ; font-size: 13px ; line-height: normal ; font-family: &amp;quot;helvetica neue&amp;quot;&quot;&gt;updateClassComponent&lt;/p&gt;" style="rounded=1;whiteSpace=wrap;html=1;fontColor=default;strokeColor=default;fillColor=default;" vertex="1" parent="1">
          <mxGeometry x="360" y="640" width="180" height="30" as="geometry" />
        </mxCell>
      </root>
    </mxGraphModel>
  </diagram>
</mxfile>
